REM DIRINDEX 1\2\5,1\2\6,1\3\7,1\3\8,1\4\9,1\4\10
REM DIRNAME cjc079,folder01,folder02,folder03,folder04,folder05,folder06,folder07,folder08,folder09
TITLE ""
FILE "Track32.mp3" MP3
  TRACK 01 AUDIO
    TITLE "10:cjc079_1077"
    INDEX 01 00:00:00
  TRACK 02 AUDIO
    TITLE "10:cjc079_1078"
    INDEX 01 00:07:11
  TRACK 03 AUDIO
    TITLE "10:cjc079_1079"
    INDEX 01 00:09:14
  TRACK 04 AUDIO
    TITLE "9:cjc079_1080"
    INDEX 01 00:10:53
  TRACK 05 AUDIO
    TITLE "0:"
    INDEX 01 00:12:05
  TRACK 06 AUDIO
    TITLE "9:cjc079_1081"
    INDEX 01 00:12:58
  TRACK 07 AUDIO
    TITLE "0:"
    INDEX 01 00:14:11
  TRACK 08 AUDIO
    TITLE "10:cjc079_1082"
    INDEX 01 00:15:62
  TRACK 09 AUDIO
    TITLE "9:cjc079_1083"
    INDEX 01 00:17:23
  TRACK 10 AUDIO
    TITLE "0:"
    INDEX 01 00:18:50
  TRACK 11 AUDIO
    TITLE "9:cjc079_1084"
    INDEX 01 00:19:26
  TRACK 12 AUDIO
    TITLE "0:"
    INDEX 01 00:20:53
  TRACK 13 AUDIO
    TITLE "10:cjc079_1085"
    INDEX 01 00:22:27
  TRACK 14 AUDIO
    TITLE "9:cjc079_1086"
    INDEX 01 00:24:02
  TRACK 15 AUDIO
    TITLE "0:"
    INDEX 01 00:25:41
  TRACK 16 AUDIO
    TITLE "9:cjc079_1087"
    INDEX 01 00:26:07
  TRACK 17 AUDIO
    TITLE "0:"
    INDEX 01 00:27:47
  TRACK 18 AUDIO
    TITLE "10:cjc079_1088"
    INDEX 01 00:29:15
  TRACK 19 AUDIO
    TITLE "9:cjc079_1089"
    INDEX 01 00:30:55
  TRACK 20 AUDIO
    TITLE "0:"
    INDEX 01 00:32:23
  TRACK 21 AUDIO
    TITLE "9:cjc079_1090"
    INDEX 01 00:32:68
  TRACK 22 AUDIO
    TITLE "0:"
    INDEX 01 00:34:36
  TRACK 23 AUDIO
    TITLE "10:cjc079_1091"
    INDEX 01 00:36:13
  TRACK 24 AUDIO
    TITLE "9:cjc079_1092"
    INDEX 01 00:37:48
  TRACK 25 AUDIO
    TITLE "0:"
    INDEX 01 00:39:07
  TRACK 26 AUDIO
    TITLE "9:cjc079_1093"
    INDEX 01 00:39:56
  TRACK 27 AUDIO
    TITLE "0:"
    INDEX 01 00:41:14
  TRACK 28 AUDIO
    TITLE "10:cjc079_1094"
    INDEX 01 00:42:66
  TRACK 29 AUDIO
    TITLE "9:cjc079_1095"
    INDEX 01 00:44:34
  TRACK 30 AUDIO
    TITLE "0:"
    INDEX 01 00:46:06
  TRACK 31 AUDIO
    TITLE "9:cjc079_1096"
    INDEX 01 00:46:54
  TRACK 32 AUDIO
    TITLE "0:"
    INDEX 01 00:48:26
  TRACK 33 AUDIO
    TITLE "10:cjc079_1097"
    INDEX 01 00:49:74
  TRACK 34 AUDIO
    TITLE "9:cjc079_1098"
    INDEX 01 00:51:44
  TRACK 35 AUDIO
    TITLE "0:"
    INDEX 01 00:53:08
  TRACK 36 AUDIO
    TITLE "9:cjc079_1099"
    INDEX 01 00:53:53
  TRACK 37 AUDIO
    TITLE "0:"
    INDEX 01 00:55:14
  TRACK 38 AUDIO
    TITLE "10:cjc079_1100"
    INDEX 01 00:56:65
  TRACK 39 AUDIO
    TITLE "9:cjc079_1101"
    INDEX 01 00:58:36
  TRACK 40 AUDIO
    TITLE "0:"
    INDEX 01 00:59:71
  TRACK 41 AUDIO
    TITLE "9:cjc079_1102"
    INDEX 01 01:00:45
  TRACK 42 AUDIO
    TITLE "0:"
    INDEX 01 01:02:05
  TRACK 43 AUDIO
    TITLE "10:cjc079_1103"
    INDEX 01 01:03:59
  TRACK 44 AUDIO
    TITLE "9:cjc079_1104"
    INDEX 01 01:05:32
  TRACK 45 AUDIO
    TITLE "0:"
    INDEX 01 01:06:71
  TRACK 46 AUDIO
    TITLE "9:cjc079_1105"
    INDEX 01 01:07:43
  TRACK 47 AUDIO
    TITLE "0:"
    INDEX 01 01:09:05
  TRACK 48 AUDIO
    TITLE "10:cjc079_1106"
    INDEX 01 01:10:57
  TRACK 49 AUDIO
    TITLE "9:cjc079_1107"
    INDEX 01 01:12:26
  TRACK 50 AUDIO
    TITLE "0:"
    INDEX 01 01:13:59
  TRACK 51 AUDIO
    TITLE "9:cjc079_1108"
    INDEX 01 01:14:35
  TRACK 52 AUDIO
    TITLE "0:"
    INDEX 01 01:15:68
  TRACK 53 AUDIO
    TITLE "10:cjc079_1109"
    INDEX 01 01:17:45
  TRACK 54 AUDIO
    TITLE "9:cjc079_1110"
    INDEX 01 01:19:38
  TRACK 55 AUDIO
    TITLE "0:"
    INDEX 01 01:21:02
  TRACK 56 AUDIO
    TITLE "9:cjc079_1111"
    INDEX 01 01:21:51
  TRACK 57 AUDIO
    TITLE "0:"
    INDEX 01 01:23:16
  TRACK 58 AUDIO
    TITLE "10:cjc079_1112"
    INDEX 01 01:24:61
  TRACK 59 AUDIO
    TITLE "9:cjc079_1113"
    INDEX 01 01:26:40
  TRACK 60 AUDIO
    TITLE "0:"
    INDEX 01 01:27:59
  TRACK 61 AUDIO
    TITLE "9:cjc079_1114"
    INDEX 01 01:28:35
  TRACK 62 AUDIO
    TITLE "0:"
    INDEX 01 01:29:56
  TRACK 63 AUDIO
    TITLE "10:cjc079_1115"
    INDEX 01 01:31:32
  TRACK 64 AUDIO
    TITLE "9:cjc079_1116"
    INDEX 01 01:33:15
  TRACK 65 AUDIO
    TITLE "0:"
    INDEX 01 01:34:38
  TRACK 66 AUDIO
    TITLE "9:cjc079_1117"
    INDEX 01 01:35:08
  TRACK 67 AUDIO
    TITLE "0:"
    INDEX 01 01:36:29
  TRACK 68 AUDIO
    TITLE "10:cjc079_1118"
    INDEX 01 01:38:02
  TRACK 69 AUDIO
    TITLE "9:cjc079_1119"
    INDEX 01 01:39:66
  TRACK 70 AUDIO
    TITLE "0:"
    INDEX 01 01:41:24
  TRACK 71 AUDIO
    TITLE "9:cjc079_1120"
    INDEX 01 01:42:00
  TRACK 72 AUDIO
    TITLE "0:"
    INDEX 01 01:43:33
  TRACK 73 AUDIO
    TITLE "10:cjc079_1121"
    INDEX 01 01:45:04
  TRACK 74 AUDIO
    TITLE "9:cjc079_1122"
    INDEX 01 01:46:51
  TRACK 75 AUDIO
    TITLE "0:"
    INDEX 01 01:47:74
  TRACK 76 AUDIO
    TITLE "9:cjc079_1123"
    INDEX 01 01:48:42
  TRACK 77 AUDIO
    TITLE "0:"
    INDEX 01 01:49:65
  TRACK 78 AUDIO
    TITLE "10:cjc079_1124"
    INDEX 01 01:51:34
  TRACK 79 AUDIO
    TITLE "9:cjc079_1125"
    INDEX 01 01:53:21
  TRACK 80 AUDIO
    TITLE "0:"
    INDEX 01 01:54:42
  TRACK 81 AUDIO
    TITLE "9:cjc079_1126"
    INDEX 01 01:55:18
  TRACK 82 AUDIO
    TITLE "0:"
    INDEX 01 01:56:41
  TRACK 83 AUDIO
    TITLE "10:cjc079_1127"
    INDEX 01 01:58:15
  TRACK 84 AUDIO
    TITLE "9:cjc079_1128"
    INDEX 01 02:00:02
  TRACK 85 AUDIO
    TITLE "0:"
    INDEX 01 02:01:27
  TRACK 86 AUDIO
    TITLE "9:cjc079_1129"
    INDEX 01 02:01:72
  TRACK 87 AUDIO
    TITLE "0:"
    INDEX 01 02:03:20
  TRACK 88 AUDIO
    TITLE "10:cjc079_1130"
    INDEX 01 02:04:68
  TRACK 89 AUDIO
    TITLE "9:cjc079_1131"
    INDEX 01 02:06:55
  TRACK 90 AUDIO
    TITLE "0:"
    INDEX 01 02:08:15
  TRACK 91 AUDIO
    TITLE "9:cjc079_1132"
    INDEX 01 02:08:60
  TRACK 92 AUDIO
    TITLE "0:"
    INDEX 01 02:10:20
  TRACK 93 AUDIO
    TITLE "10:cjc079_1133"
    INDEX 01 02:11:68
  TRACK 94 AUDIO
    TITLE "9:cjc079_1134"
    INDEX 01 02:13:54
  TRACK 95 AUDIO
    TITLE "0:"
    INDEX 01 02:15:09
  TRACK 96 AUDIO
    TITLE "9:cjc079_1135"
    INDEX 01 02:15:49
  TRACK 97 AUDIO
    TITLE "0:"
    INDEX 01 02:17:02
  TRACK 98 AUDIO
    TITLE "10:cjc079_1136"
    INDEX 01 02:18:47
  TRACK 99 AUDIO
    TITLE "9:cjc079_1137"
    INDEX 01 02:20:28
  TRACK 100 AUDIO
    TITLE "0:"
    INDEX 01 02:21:51
  TRACK 101 AUDIO
    TITLE "9:cjc079_1138"
    INDEX 01 02:22:27
  TRACK 102 AUDIO
    TITLE "0:"
    INDEX 01 02:23:50
  TRACK 103 AUDIO
    TITLE "10:cjc079_1139"
    INDEX 01 02:25:23
  TRACK 104 AUDIO
    TITLE "9:cjc079_1140"
    INDEX 01 02:27:28
  TRACK 105 AUDIO
    TITLE "0:"
    INDEX 01 02:28:51
  TRACK 106 AUDIO
    TITLE "9:cjc079_1141"
    INDEX 01 02:29:23
  TRACK 107 AUDIO
    TITLE "0:"
    INDEX 01 02:30:44
  TRACK 108 AUDIO
    TITLE "10:cjc079_1142"
    INDEX 01 02:32:20
  TRACK 109 AUDIO
    TITLE "9:cjc079_1143"
    INDEX 01 02:34:17
  TRACK 110 AUDIO
    TITLE "0:"
    INDEX 01 02:35:51
  TRACK 111 AUDIO
    TITLE "9:cjc079_1144"
    INDEX 01 02:36:25
  TRACK 112 AUDIO
    TITLE "0:"
    INDEX 01 02:37:60
  TRACK 113 AUDIO
    TITLE "10:cjc079_1145"
    INDEX 01 02:39:29
  TRACK 114 AUDIO
    TITLE "9:cjc079_1146"
    INDEX 01 02:41:21
  TRACK 115 AUDIO
    TITLE "0:"
    INDEX 01 02:42:59
  TRACK 116 AUDIO
    TITLE "9:cjc079_1147"
    INDEX 01 02:43:29
  TRACK 117 AUDIO
    TITLE "0:"
    INDEX 01 02:44:68
  TRACK 118 AUDIO
    TITLE "10:cjc079_1148"
    INDEX 01 02:46:39
  TRACK 119 AUDIO
    TITLE "9:cjc079_1149"
    INDEX 01 02:48:36
  TRACK 120 AUDIO
    TITLE "0:"
    INDEX 01 02:50:08
  TRACK 121 AUDIO
    TITLE "9:cjc079_1150"
    INDEX 01 02:50:53
  TRACK 122 AUDIO
    TITLE "0:"
    INDEX 01 02:52:26
  TRACK 123 AUDIO
    TITLE "10:cjc079_1151"
    INDEX 01 02:53:71
  TRACK 124 AUDIO
    TITLE "9:cjc079_1152"
    INDEX 01 02:55:62
  TRACK 125 AUDIO
    TITLE "0:"
    INDEX 01 02:57:23
  TRACK 126 AUDIO
    TITLE "9:cjc079_1153"
    INDEX 01 02:57:72
  TRACK 127 AUDIO
    TITLE "0:"
    INDEX 01 02:59:36
  TRACK 128 AUDIO
    TITLE "10:cjc079_1154"
    INDEX 01 03:01:08
  TRACK 129 AUDIO
    TITLE "9:cjc079_1155"
    INDEX 01 03:03:12
  TRACK 130 AUDIO
    TITLE "0:"
    INDEX 01 03:04:71
  TRACK 131 AUDIO
    TITLE "9:cjc079_1156"
    INDEX 01 03:05:48
  TRACK 132 AUDIO
    TITLE "0:"
    INDEX 01 03:07:32
  TRACK 133 AUDIO
    TITLE "10:cjc079_1157"
    INDEX 01 03:09:09
  TRACK 134 AUDIO
    TITLE "9:cjc079_1158"
    INDEX 01 03:11:08
  TRACK 135 AUDIO
    TITLE "0:"
    INDEX 01 03:12:60
  TRACK 136 AUDIO
    TITLE "9:cjc079_1159"
    INDEX 01 03:13:32
  TRACK 137 AUDIO
    TITLE "0:"
    INDEX 01 03:15:08
  TRACK 138 AUDIO
    TITLE "10:cjc079_1160"
    INDEX 01 03:16:56
  TRACK 139 AUDIO
    TITLE "9:cjc079_1161"
    INDEX 01 03:18:67
  TRACK 140 AUDIO
    TITLE "0:"
    INDEX 01 03:20:38
  TRACK 141 AUDIO
    TITLE "9:cjc079_1162"
    INDEX 01 03:21:14
  TRACK 142 AUDIO
    TITLE "0:"
    INDEX 01 03:22:61
  TRACK 143 AUDIO
    TITLE "10:cjc079_1163"
    INDEX 01 03:24:32
  TRACK 144 AUDIO
    TITLE "9:cjc079_1164"
    INDEX 01 03:26:33
  TRACK 145 AUDIO
    TITLE "0:"
    INDEX 01 03:27:66
  TRACK 146 AUDIO
    TITLE "9:cjc079_1165"
    INDEX 01 03:28:34
  TRACK 147 AUDIO
    TITLE "0:"
    INDEX 01 03:29:65
  TRACK 148 AUDIO
    TITLE "10:cjc079_1166"
    INDEX 01 03:31:36
  TRACK 149 AUDIO
    TITLE "9:cjc079_1167"
    INDEX 01 03:33:37
  TRACK 150 AUDIO
    TITLE "0:"
    INDEX 01 03:35:04
  TRACK 151 AUDIO
    TITLE "9:cjc079_1168"
    INDEX 01 03:35:53
  TRACK 152 AUDIO
    TITLE "0:"
    INDEX 01 03:37:21
  TRACK 153 AUDIO
    TITLE "10:cjc079_1169"
    INDEX 01 03:38:69
  TRACK 154 AUDIO
    TITLE "9:cjc079_1170"
    INDEX 01 03:41:07
  TRACK 155 AUDIO
    TITLE "0:"
    INDEX 01 03:42:44
  TRACK 156 AUDIO
    TITLE "9:cjc079_1171"
    INDEX 01 03:43:18
  TRACK 157 AUDIO
    TITLE "0:"
    INDEX 01 03:44:56
  TRACK 158 AUDIO
    TITLE "10:cjc079_1172"
    INDEX 01 03:46:32
  TRACK 159 AUDIO
    TITLE "9:cjc079_1173"
    INDEX 01 03:48:36
  TRACK 160 AUDIO
    TITLE "0:"
    INDEX 01 03:50:08
  TRACK 161 AUDIO
    TITLE "9:cjc079_1174"
    INDEX 01 03:50:55
  TRACK 162 AUDIO
    TITLE "0:"
    INDEX 01 03:52:26
  TRACK 163 AUDIO
    TITLE "10:cjc079_1175"
    INDEX 01 03:54:02
  TRACK 164 AUDIO
    TITLE "9:cjc079_1176"
    INDEX 01 03:56:14
  TRACK 165 AUDIO
    TITLE "0:"
    INDEX 01 03:57:45
  TRACK 166 AUDIO
    TITLE "9:cjc079_1177"
    INDEX 01 03:58:13
  TRACK 167 AUDIO
    TITLE "0:"
    INDEX 01 03:59:44
  TRACK 168 AUDIO
    TITLE "10:cjc079_1178"
    INDEX 01 04:01:14
  TRACK 169 AUDIO
    TITLE "9:cjc079_1179"
    INDEX 01 04:03:22
  TRACK 170 AUDIO
    TITLE "0:"
    INDEX 01 04:04:57
  TRACK 171 AUDIO
    TITLE "9:cjc079_1180"
    INDEX 01 04:05:27
  TRACK 172 AUDIO
    TITLE "0:"
    INDEX 01 04:06:62
